<svg width="495" height="806" viewBox="0 0 495 806" fill="none" xmlns="http://www.w3.org/2000/svg">
<mask id="mask0_92_56" style="mask-type:alpha" maskUnits="userSpaceOnUse" x="0" y="20" width="495" height="786">
<rect x="495" y="806" width="495" height="786" transform="rotate(180 495 806)" fill="white"/>
</mask>
<g mask="url(#mask0_92_56)">
<path d="M459.074 473.526C363.364 617.281 311.407 659.603 139.176 670.665L132.768 648.912C307.824 642.302 403.516 540.788 459.074 473.526Z" fill="#FBB914"/>
<path d="M465.405 457C356.429 644.063 274.566 694.065 76.8455 707.382L67.2046 671.5C268.199 664.014 364.944 615.828 465.405 457Z" fill="#0F8A39"/>
<path d="M495 806H0V708.186C292.575 709.962 397.983 627.529 495 351V806Z" fill="#2A5081"/>
</g>
<mask id="mask1_92_56" style="mask-type:alpha" maskUnits="userSpaceOnUse" x="0" y="0" width="495" height="786">
<rect width="495" height="786" fill="white"/>
</mask>
<g mask="url(#mask1_92_56)">
<path d="M-18.961 180.194C76.749 36.4384 128.706 -5.8832 300.937 -16.9452L307.345 4.80771C132.289 11.4177 36.5968 112.931 -18.961 180.194Z" fill="#FBB914"/>
<path d="M-25.2917 196.72C83.6837 9.65689 165.547 -40.3454 363.268 -53.6622L372.908 -17.7803C171.914 -10.2945 75.1695 37.892 -25.2917 196.72Z" fill="#0F8A39"/>
<path d="M-59 -142H436V-44.186C143.425 -45.9616 38.0166 36.4708 -59 313V-142Z" fill="#2A5081"/>
</g>
</svg>
