<svg width="495" height="786" viewBox="0 0 495 786" fill="none" xmlns="http://www.w3.org/2000/svg">
<mask id="mask0_92_56" style="mask-type:alpha" maskUnits="userSpaceOnUse" x="0" y="0" width="495" height="786">
<rect width="495" height="786" fill="white"/>
</mask>
<g mask="url(#mask0_92_56)">
<path d="M40.039 322.194C135.749 178.438 187.706 136.117 359.937 125.055L366.345 146.808C191.289 153.418 95.5968 254.931 40.039 322.194Z" fill="#FBB914"/>
<path d="M33.7083 338.72C142.684 151.657 224.547 101.655 422.268 88.3378L431.908 124.22C230.914 131.705 134.17 179.892 33.7083 338.72Z" fill="#0F8A39"/>
<path d="M0 0H495V97.814C202.425 96.0384 97.0166 178.471 0 455V0Z" fill="#2A5081"/>
</g>
<mask id="mask1_92_56" style="mask-type:alpha" maskUnits="userSpaceOnUse" x="0" y="0" width="495" height="786">
<rect x="495" y="786" width="495" height="786" transform="rotate(180 495 786)" fill="white"/>
</mask>
<g mask="url(#mask1_92_56)">
<path d="M459.074 453.526C363.364 597.281 311.407 639.603 139.176 650.665L132.768 628.912C307.824 622.302 403.516 520.788 459.074 453.526Z" fill="#FBB914"/>
<path d="M465.405 437C356.429 624.063 274.566 674.065 76.8455 687.382L67.2046 651.5C268.199 644.014 364.943 595.828 465.405 437Z" fill="#0F8A39"/>
<path d="M495 786H-1.07288e-05V688.186C292.575 689.962 397.983 607.529 495 331V786Z" fill="#2A5081"/>
</g>
</svg>
